<svg width="182" height="92" viewBox="0 0 182 92" fill="none" xmlns="http://www.w3.org/2000/svg">
<path d="M125.5 38L133 38.5V71H141.5V78.5H133.5V87L174.5 68V63L182 59V52.5L174.5 51.7733V20L166.5 19.5L125.5 38Z" fill="white"/>
<path d="M117.75 54.5V46.25H125.5H125.75V46V38.25H133.25V70.5V70.75H133.5H141.75V78.75H133.5H133.25V79V86.75H125.75V79V78.75H125.5H101.75V62.75H109.5H109.75V62.5V54.75H117.5H117.75V54.5ZM109.25 53.6171V54.25H105.379L106.598 51.4068L109.25 53.6171Z" stroke="white" stroke-width="0.5"/>
<path d="M110 63V71H126V63V55H118V63H110Z" fill="white"/>
<path d="M14.25 85.5V85.75H14.5H19.75V86.75H1.75V85.75H6.5H6.75V85.5V46V45.5091L6.35296 45.7978L1.02572 49.6722L0.384086 49.0305L14.25 38.9897V85.5Z" stroke="white" stroke-width="0.5"/>
<path d="M35.5 30.7169L14.5 38.5V85.5H20V87L29.5 83.5C27 81.5 24.5 77.5 23.5 76L28 71.5L67.5 53.5C59 39 38.5 43 35.5 47.5V30.7169Z" fill="white"/>
<path d="M130.5 22.5L118.5 22L105.5 28L87 29L77 41H89.5V81.7731L95.5 82V87L113 79H101.5V62.5H109.5V54.5H117.5V46H125.5V38L130.5 35.7439V22.5Z" fill="white"/>
<path d="M66.6 52.75L28 71.5L30 75L33 78.5L36.5 81.5L41 84L46.5 85.5L50.5 85L56 83.5L61.5 80.5L66 76L69 70.5L70 64.5L69.5 60.5L68.5 56L66.6 52.75Z" fill="white"/>
<path d="M76 0L35.5 18L65 18.5V23.5H41.5V38L45 37H49L56 37.5L63 40.5L68.5 44.5L69.5 46L70 46.5L73 51.5L75 56L76 61L75.5 70L73 77L68 83.5L60.5 88.5L77 81.16H83V78.5V46.5H77V41L105.5 28C100.7 21.2 88.3333 18.3333 82.5 18L103.5 8.5V2L76 0Z" fill="white"/>
<path d="M27.9448 71.9087C29.5867 74.749 32.6409 78.6596 36.693 81.529C40.8866 84.4986 46.1719 86.3671 52.0665 84.741C63.7331 81.5226 68.0457 74.0044 68.7421 70.5644C69.5014 68.2772 70.1271 64.2457 69.4973 60.0256C68.8654 55.792 66.9655 51.3461 62.6442 48.2958C56.7524 44.1369 51.572 42.8655 47.0326 43.1523C42.6744 43.4277 38.9338 45.138 35.75 47.0551V18.25H64.9234V23.75H42H41.75V24V37.5V37.836L42.0718 37.7395C44.5355 37.0004 48.9223 36.4528 53.7853 37.2343C58.6445 38.0153 63.9652 40.1207 68.3193 44.6728C77.0373 53.7871 76.4131 65.6518 75.257 70.4413L75.2567 70.4413L75.2546 70.4523C74.1016 76.3821 67.8294 88.7694 51.969 90.7519C36.2589 92.7157 26.7067 81.8696 23.8034 76.0502L27.9448 71.9087Z" stroke="white" stroke-width="0.5"/>
<path d="M83.25 46.5V46.25H83H77.25V41.25H89.25V81.5V81.75H89.5H95.25V86.75H77.25V81.4123H83H83.25V81.1623V46.5Z" stroke="white" stroke-width="0.5"/>
</svg>
