<?xml version="1.0" standalone="no"?>
<!DOCTYPE svg PUBLIC "-//W3C//DTD SVG 20010904//EN"
 "http://www.w3.org/TR/2001/REC-SVG-20010904/DTD/svg10.dtd">
<svg version="1.0" xmlns="http://www.w3.org/2000/svg"
 width="669.000000pt" height="669.000000pt" viewBox="0 0 669.000000 669.000000"
 preserveAspectRatio="xMidYMid meet">
<metadata>
Created by potrace 1.14, written by Peter Selinger 2001-2017
</metadata>
<g transform="translate(0.000000,669.000000) scale(0.100000,-0.100000)"
fill="#000000" stroke="none">
<path d="M2950 6684 c-306 -36 -699 -143 -965 -264 -481 -217 -878 -514 -1210
-905 -203 -238 -404 -562 -517 -830 -9 -22 -27 -62 -38 -90 -12 -27 -41 -108
-65 -180 -37 -112 -57 -182 -105 -375 -4 -19 -14 -69 -20 -110 -6 -41 -16 -97
-21 -123 -5 -26 -9 -233 -9 -460 0 -393 1 -419 25 -557 106 -618 371 -1181
775 -1645 368 -423 842 -751 1370 -950 148 -56 341 -110 505 -143 228 -46 247
-47 665 -47 410 0 443 2 640 42 41 9 86 18 100 20 56 11 214 55 297 82 100 33
149 51 246 90 78 32 333 159 414 207 396 232 769 573 1037 948 279 391 469
828 560 1291 49 245 51 273 51 660 0 382 -4 434 -51 665 -43 210 -129 488
-200 648 -195 435 -404 743 -719 1058 -299 300 -624 526 -1000 694 -27 12 -68
30 -90 40 -140 63 -475 164 -625 190 -30 5 -93 16 -140 26 -69 13 -158 17
-480 19 -217 2 -411 1 -430 -1z m668 -180 c6 -11 36 -18 113 -25 157 -14 262
-29 284 -39 11 -5 60 -16 110 -25 49 -9 94 -20 100 -25 5 -4 51 -18 100 -30
50 -13 95 -26 100 -30 6 -4 28 -13 50 -20 22 -7 68 -26 102 -41 34 -16 66 -29
71 -29 14 0 270 -132 322 -165 65 -42 82 -53 106 -64 11 -5 33 -20 50 -34 16
-13 60 -45 99 -71 70 -47 103 -74 271 -224 78 -69 138 -132 328 -342 12 -14
22 -27 22 -30 0 -3 13 -18 28 -35 26 -27 53 -65 98 -134 9 -14 23 -32 30 -40
17 -19 54 -79 71 -116 8 -17 20 -37 28 -45 19 -20 154 -288 163 -322 3 -16 10
-28 15 -28 5 0 13 -15 16 -32 4 -18 16 -51 26 -73 10 -22 27 -74 39 -115 11
-41 24 -82 29 -90 5 -9 12 -31 16 -50 4 -19 12 -41 18 -48 5 -7 10 -27 9 -45
0 -17 3 -36 7 -42 5 -5 14 -44 21 -85 7 -41 16 -79 20 -85 4 -5 8 -46 9 -90 2
-44 8 -86 14 -94 18 -21 17 -803 0 -809 -9 -2 -13 -28 -13 -81 0 -42 -4 -81
-9 -86 -4 -6 -14 -46 -21 -90 -6 -44 -15 -84 -20 -90 -4 -5 -8 -25 -8 -44 0
-18 -6 -39 -11 -44 -6 -6 -11 -20 -11 -30 0 -10 -6 -33 -14 -50 -8 -18 -24
-66 -36 -107 -12 -41 -26 -84 -31 -95 -6 -12 -11 -27 -13 -35 -1 -8 -13 -37
-27 -65 -14 -27 -34 -74 -44 -102 -11 -29 -22 -53 -26 -53 -3 0 -14 -21 -24
-47 -10 -27 -23 -55 -30 -63 -6 -8 -22 -36 -34 -62 -12 -25 -35 -64 -51 -86
-15 -22 -38 -58 -49 -81 -12 -22 -26 -41 -31 -41 -5 0 -12 -10 -16 -22 -3 -11
-26 -46 -51 -76 -24 -30 -55 -70 -68 -91 -13 -20 -40 -53 -59 -74 -20 -21 -41
-47 -47 -59 -12 -23 -125 -165 -137 -172 -4 -2 1 138 10 312 9 175 17 342 17
372 l1 55 -43 1 c-23 1 -67 3 -97 5 l-55 3 -5 -196 -5 -196 -300 291 c-165
160 -605 595 -977 966 l-677 676 -3 1363 c-2 749 0 1362 4 1362 8 0 110 -92
223 -202 l71 -68 58 71 58 70 -88 91 c-49 50 -167 168 -262 262 l-173 170
-264 -264 c-146 -146 -265 -268 -265 -271 0 -4 28 -37 62 -74 l63 -68 137 144
138 144 0 -1358 0 -1359 -597 -601 c-1222 -1230 -1323 -1331 -1337 -1333 -10
-1 -14 30 -19 140 -4 77 -7 170 -7 205 l0 63 -32 -5 c-18 -4 -62 -9 -97 -13
l-63 -7 7 -361 6 -361 -73 76 c-40 41 -91 99 -113 128 -22 29 -52 65 -66 79
-14 15 -48 61 -74 102 -27 41 -53 77 -57 78 -4 2 -8 10 -8 17 0 7 -3 15 -7 17
-12 5 -63 82 -63 94 0 6 -8 19 -18 30 -9 10 -28 42 -41 69 -14 28 -31 56 -38
63 -7 7 -13 19 -13 25 0 7 -16 46 -37 87 -20 41 -42 86 -48 100 -7 14 -18 43
-25 65 -7 22 -18 51 -26 65 -7 14 -20 50 -29 80 -9 30 -20 64 -25 75 -11 26
-34 97 -35 110 -2 32 -18 101 -25 110 -4 6 -11 30 -15 55 -4 25 -9 49 -12 53
-3 5 -7 34 -9 65 -2 31 -8 68 -14 82 -44 114 -44 948 1 995 5 5 9 21 9 36 0
38 29 200 39 224 6 11 19 63 31 115 12 52 25 100 29 105 4 6 16 39 26 75 10
36 24 74 31 85 7 11 15 31 17 45 3 14 21 60 41 102 20 42 36 80 36 84 0 4 6
15 13 23 7 9 22 36 32 61 11 25 38 74 60 110 23 36 47 79 54 97 7 17 22 40 32
49 11 10 36 45 56 78 41 69 54 85 195 256 170 204 409 423 613 561 50 33 97
66 105 73 8 7 42 28 75 45 33 18 67 39 75 46 8 8 35 23 60 34 25 11 52 25 60
30 24 16 162 78 190 86 14 4 34 13 45 20 11 6 45 20 75 29 30 10 69 24 85 31
17 7 62 20 100 30 39 9 75 20 80 25 11 8 165 40 194 40 11 0 21 4 23 9 2 5 64
17 138 26 74 9 141 22 148 28 9 7 99 13 235 17 386 11 365 12 375 -6z m562
-4139 c404 -401 816 -810 915 -907 l180 -178 -202 0 -203 0 0 -82 c0 -46 4
-88 8 -94 4 -6 31 -12 60 -13 30 -1 81 -4 115 -6 34 -2 141 -7 237 -11 151 -6
211 -9 280 -13 20 -1 -88 -109 -126 -125 -17 -8 -47 -28 -68 -46 -81 -71 -335
-250 -356 -250 -5 0 -13 -6 -17 -14 -8 -15 -31 -27 -209 -115 -193 -94 -208
-101 -225 -101 -10 0 -21 -4 -24 -10 -3 -5 -38 -19 -78 -31 -40 -12 -77 -25
-82 -30 -6 -4 -42 -15 -80 -24 -39 -10 -84 -23 -102 -31 -17 -8 -43 -14 -57
-14 -14 0 -26 -4 -26 -8 0 -5 -17 -9 -37 -10 -52 -2 -116 -13 -128 -22 -18
-13 -217 -31 -460 -40 -209 -8 -242 -7 -256 6 -12 11 -19 12 -24 4 -12 -19
-395 7 -437 30 -9 5 -47 12 -85 16 -37 4 -72 10 -78 14 -5 4 -30 11 -55 15
-25 4 -49 11 -55 15 -5 4 -41 16 -80 25 -38 10 -74 21 -80 25 -5 4 -37 15 -70
25 -33 9 -88 30 -123 46 -35 16 -66 29 -70 29 -4 0 -28 11 -54 24 -25 13 -59
29 -75 35 -15 6 -50 24 -78 41 -27 16 -61 35 -75 42 -14 7 -48 27 -77 45 -29
18 -55 33 -59 33 -3 0 -22 14 -41 30 -18 17 -38 30 -44 30 -6 0 -7 5 -3 12 4
6 3 8 -4 4 -5 -3 -23 4 -39 17 -15 13 -46 36 -68 50 -22 14 -58 42 -80 62 -22
20 -64 50 -93 67 -48 27 -155 135 -153 154 1 7 231 12 599 14 l132 0 0 101 0
101 -177 -7 c-98 -4 -181 -9 -185 -11 -4 -3 -9 0 -12 5 -3 5 415 428 930 940
l937 930 41 -32 c22 -17 372 -360 776 -762z"/>
<path d="M2854 6345 c-4 -8 -4 -22 0 -30 5 -13 -19 -15 -174 -15 l-180 0 0
-30 0 -30 179 0 178 0 -5 -25 c-3 -17 1 -27 12 -31 21 -8 150 65 154 88 2 11
-17 27 -61 52 -70 39 -94 44 -103 21z"/>
<path d="M2683 6161 c-41 -11 -63 -38 -63 -79 0 -47 14 -62 60 -62 45 0 80 33
80 76 0 50 -32 77 -77 65z"/>
<path d="M2633 5945 c-71 -36 -128 -87 -120 -109 6 -15 9 -15 36 -1 40 20 41
20 30 -17 -16 -55 -59 -256 -59 -278 0 -13 12 -26 33 -36 32 -15 36 -15 73 4
21 11 59 38 84 60 39 34 43 41 31 56 -12 14 -16 14 -41 -4 -15 -11 -29 -17
-32 -15 -3 3 10 69 28 148 38 162 40 180 18 201 -20 21 -21 20 -81 -9z"/>
<path d="M1374 2955 c-4 -8 -4 -22 0 -30 4 -12 -21 -15 -172 -17 l-177 -3 -3
-27 -3 -28 181 0 c119 0 179 -3 175 -10 -10 -16 5 -50 22 -50 29 0 143 73 143
91 0 21 -107 89 -139 89 -12 0 -24 -7 -27 -15z"/>
<path d="M6014 2875 c-4 -8 -4 -21 -1 -28 3 -9 -4 -13 -22 -13 -14 -1 -95 -1
-178 -2 l-153 -2 0 -30 0 -30 175 0 175 0 0 -25 c0 -20 5 -25 24 -25 36 0 148
68 144 88 -4 20 -105 81 -136 82 -12 0 -25 -7 -28 -15z"/>
<path d="M1214 2762 c-57 -9 -78 -96 -31 -127 19 -12 30 -13 56 -4 36 13 51
35 51 77 0 41 -30 62 -76 54z"/>
<path d="M5735 2639 c-16 -5 -52 -13 -80 -17 -41 -6 -50 -11 -50 -27 0 -15 8
-21 29 -23 28 -4 28 -4 23 -53 -3 -27 -13 -77 -21 -111 -9 -35 -34 -151 -57
-258 -22 -107 -43 -198 -45 -202 -10 -15 18 -17 72 -5 l58 13 16 90 c25 141
33 145 75 34 16 -45 43 -97 59 -116 24 -30 34 -35 57 -30 60 12 137 81 125
113 -6 14 -9 14 -31 -1 -13 -9 -31 -16 -38 -16 -14 0 -89 148 -102 200 -11 46
59 85 120 69 25 -7 33 -5 48 14 25 32 18 70 -15 81 -41 14 -92 -14 -182 -99
-69 -65 -78 -71 -73 -47 2 15 21 104 41 197 21 94 38 177 39 185 2 18 -27 22
-68 9z"/>
<path d="M1157 2537 c-59 -35 -107 -76 -107 -92 0 -19 15 -19 46 1 13 9 27 15
29 12 6 -6 -58 -360 -90 -495 -6 -28 -33 -30 -77 -7 -31 16 -33 16 -50 -6 -21
-26 -23 -61 -6 -78 21 -21 62 -13 121 22 116 70 152 140 202 393 20 100 35
201 33 225 -3 40 -5 43 -33 45 -16 1 -47 -8 -68 -20z"/>
<path d="M3266 3033 c-20 -21 -36 -45 -36 -53 0 -9 -5 -21 -11 -27 -5 -5 -9
-30 -7 -54 3 -43 4 -44 40 -47 29 -2 38 1 43 17 8 27 30 42 49 35 21 -8 22
-95 2 -127 -8 -12 -16 -33 -18 -47 -3 -24 -26 -66 -95 -170 -24 -35 -33 -61
-33 -90 l0 -40 143 0 143 0 13 58 c7 31 11 84 9 117 -3 57 -4 60 -30 63 -19 2
-30 -3 -38 -17 -6 -12 -7 -21 -3 -21 15 -1 -31 -30 -46 -30 -13 0 -11 4 5 18
11 9 37 49 56 87 32 64 36 78 37 161 3 152 -30 204 -133 204 -50 0 -58 -3 -90
-37z"/>
<path d="M3294 2383 c-23 -4 -61 -78 -71 -137 -3 -20 -9 -34 -13 -31 -3 2 -6
-67 -5 -153 1 -136 5 -166 25 -227 24 -71 45 -100 88 -122 28 -15 72 -17 72
-4 0 5 10 12 23 15 26 8 64 54 71 87 3 13 9 48 15 78 13 64 14 279 1 336 -21
100 -33 129 -59 147 -20 14 -104 20 -147 11z m82 -160 c17 -109 5 -408 -16
-387 -27 27 -36 314 -13 412 9 36 21 25 29 -25z"/>
<path d="M3320 1682 c0 -4 -13 -12 -28 -18 -38 -15 -75 -91 -80 -166 l-4 -58
34 0 c30 0 38 5 54 35 10 19 24 35 31 35 18 0 35 -37 35 -75 0 -41 -39 -158
-67 -205 -70 -113 -96 -173 -93 -208 l3 -37 142 -3 141 -3 12 68 c6 38 10 93
8 123 -3 52 -5 55 -31 58 -23 3 -29 -2 -38 -27 -7 -19 -18 -31 -29 -31 -15 0
-13 8 14 63 17 34 34 65 39 68 18 13 26 80 24 188 l-2 116 -41 43 c-36 36 -48
42 -83 42 -22 0 -41 -4 -41 -8z"/>
<path d="M3300 934 c-42 -18 -90 -119 -90 -191 l0 -53 35 0 c19 0 35 5 35 11
0 6 10 25 22 41 l21 31 19 -23 c22 -28 23 -99 2 -155 -9 -22 -19 -54 -23 -71
-5 -17 -18 -44 -29 -60 -12 -16 -23 -39 -25 -51 -2 -13 -12 -33 -23 -45 -30
-35 -44 -70 -41 -103 l2 -30 142 -3 141 -3 11 51 c6 28 11 80 11 115 l0 65
-34 0 c-27 0 -35 -5 -40 -24 -6 -23 -33 -42 -45 -31 -3 3 0 14 7 23 6 9 28 50
49 91 35 71 37 80 41 191 4 102 1 122 -16 162 -12 24 -28 50 -36 57 -21 17
-100 20 -136 5z"/>
</g>
</svg>
